<svg width="400" height="400" viewBox="0 0 400 400" fill="none" xmlns="http://www.w3.org/2000/svg">
<g clip-path="url(#clip0_3045_2)">
<path d="M200.708 0.00813802C201.834 55.2599 204.256 110.513 207.471 165.764C211.704 238.532 242.735 311.305 264.388 384.074C264.867 385.683 265.318 387.299 265.788 388.908C245.183 396.083 223.05 400 200 400C176.954 400 154.823 396.089 134.22 388.916C134.691 387.304 135.148 385.686 135.628 384.074C157.281 311.305 188.313 238.532 192.545 165.764C195.76 110.513 198.175 55.2599 199.3 0.00813802C199.534 0.00733912 199.766 0 200 0C200.236 0 200.472 0.00732043 200.708 0.00813802Z" fill="white"/>
<path d="M188.42 193.058C176.945 256.043 142.277 319.032 117.016 382.015C109.569 378.614 102.366 374.771 95.4427 370.516C130.086 311.365 174.475 252.21 188.42 193.058Z" fill="white"/>
<path d="M211.588 193.058C225.532 252.205 269.907 311.362 304.549 370.508C297.627 374.761 290.429 378.606 282.984 382.007C257.723 319.027 223.063 256.038 211.588 193.058Z" fill="white"/>
<path d="M187.329 0.406921C187.248 55.8647 187.183 111.323 186.946 166.781C186.685 227.809 122.795 288.857 67.6025 349.886C26.1488 313.242 0 259.679 0 200C0 93.7991 82.776 6.94378 187.329 0.406921Z" fill="white"/>
<path d="M212.671 0.406921C317.224 6.94378 400 93.7991 400 200C400 259.681 373.845 313.241 332.389 349.886C277.199 288.861 213.323 227.805 213.062 166.781C212.825 111.323 212.752 55.8647 212.671 0.406921Z" fill="white"/>
</g>
<defs>
<clipPath id="clip0_3045_2">
<rect width="400" height="400" fill="white"/>
</clipPath>
</defs>
</svg>
